<svg id="visual" viewBox="0 0 900 450" width="900" height="450" xmlns="http://www.w3.org/2000/svg" xmlns:xlink="http://www.w3.org/1999/xlink" version="1.1"><path d="M0 55L13.7 55.8C27.3 56.7 54.7 58.3 82 59.2C109.3 60 136.7 60 163.8 59.2C191 58.3 218 56.7 245.2 56.7C272.3 56.7 299.7 58.3 327 55.3C354.3 52.3 381.7 44.7 409 41.7C436.3 38.7 463.7 40.3 491 46.3C518.3 52.3 545.7 62.7 573 63.3C600.3 64 627.7 55 654.8 48.3C682 41.7 709 37.3 736.2 40.3C763.3 43.3 790.7 53.7 818 58.2C845.3 62.7 872.7 61.3 886.3 60.7L900 60L900 0L886.3 0C872.7 0 845.3 0 818 0C790.7 0 763.3 0 736.2 0C709 0 682 0 654.8 0C627.7 0 600.3 0 573 0C545.7 0 518.3 0 491 0C463.7 0 436.3 0 409 0C381.7 0 354.3 0 327 0C299.7 0 272.3 0 245.2 0C218 0 191 0 163.8 0C136.7 0 109.3 0 82 0C54.7 0 27.3 0 13.7 0L0 0Z" fill="#001886"></path><path d="M0 213L13.7 213C27.3 213 54.7 213 82 211.5C109.3 210 136.7 207 163.8 203.2C191 199.3 218 194.7 245.2 187.2C272.3 179.7 299.7 169.3 327 163.3C354.3 157.3 381.7 155.7 409 158.7C436.3 161.7 463.7 169.3 491 176.2C518.3 183 545.7 189 573 183.7C600.3 178.3 627.7 161.7 654.8 153.3C682 145 709 145 736.2 151C763.3 157 790.7 169 818 171.3C845.3 173.7 872.7 166.3 886.3 162.7L900 159L900 58L886.3 58.7C872.7 59.3 845.3 60.7 818 56.2C790.7 51.7 763.3 41.3 736.2 38.3C709 35.3 682 39.7 654.8 46.3C627.7 53 600.3 62 573 61.3C545.7 60.7 518.3 50.3 491 44.3C463.7 38.3 436.3 36.7 409 39.7C381.7 42.7 354.3 50.3 327 53.3C299.7 56.3 272.3 54.7 245.2 54.7C218 54.7 191 56.3 163.8 57.2C136.7 58 109.3 58 82 57.2C54.7 56.3 27.3 54.7 13.7 53.8L0 53Z" fill="#0e2b9e"></path><path d="M0 321L13.7 324C27.3 327 54.7 333 82 332.2C109.3 331.3 136.7 323.7 163.8 316.2C191 308.7 218 301.3 245.2 302.2C272.3 303 299.7 312 327 315.7C354.3 319.3 381.7 317.7 409 314.7C436.3 311.7 463.7 307.3 491 308.8C518.3 310.3 545.7 317.7 573 320.7C600.3 323.7 627.7 322.3 654.8 326.8C682 331.3 709 341.7 736.2 339.3C763.3 337 790.7 322 818 313C845.3 304 872.7 301 886.3 299.5L900 298L900 157L886.3 160.7C872.7 164.3 845.3 171.7 818 169.3C790.7 167 763.3 155 736.2 149C709 143 682 143 654.8 151.3C627.7 159.7 600.3 176.3 573 181.7C545.7 187 518.3 181 491 174.2C463.7 167.3 436.3 159.7 409 156.7C381.7 153.7 354.3 155.3 327 161.3C299.7 167.3 272.3 177.7 245.2 185.2C218 192.7 191 197.3 163.8 201.2C136.7 205 109.3 208 82 209.5C54.7 211 27.3 211 13.7 211L0 211Z" fill="#183db7"></path><path d="M0 406L13.7 405.3C27.3 404.7 54.7 403.3 82 401.2C109.3 399 136.7 396 163.8 396C191 396 218 399 245.2 396.7C272.3 394.3 299.7 386.7 327 385.2C354.3 383.7 381.7 388.3 409 386.2C436.3 384 463.7 375 491 372.7C518.3 370.3 545.7 374.7 573 376.2C600.3 377.7 627.7 376.3 654.8 380.8C682 385.3 709 395.7 736.2 394.2C763.3 392.7 790.7 379.3 818 374.8C845.3 370.3 872.7 374.7 886.3 376.8L900 379L900 296L886.3 297.5C872.7 299 845.3 302 818 311C790.7 320 763.3 335 736.2 337.3C709 339.7 682 329.3 654.8 324.8C627.7 320.3 600.3 321.7 573 318.7C545.7 315.7 518.3 308.3 491 306.8C463.7 305.3 436.3 309.7 409 312.7C381.7 315.7 354.3 317.3 327 313.7C299.7 310 272.3 301 245.2 300.2C218 299.3 191 306.7 163.8 314.2C136.7 321.7 109.3 329.3 82 330.2C54.7 331 27.3 325 13.7 322L0 319Z" fill="#2050d1"></path><path d="M0 451L13.7 451C27.3 451 54.7 451 82 451C109.3 451 136.7 451 163.8 451C191 451 218 451 245.2 451C272.3 451 299.7 451 327 451C354.3 451 381.7 451 409 451C436.3 451 463.7 451 491 451C518.3 451 545.7 451 573 451C600.3 451 627.7 451 654.8 451C682 451 709 451 736.2 451C763.3 451 790.7 451 818 451C845.3 451 872.7 451 886.3 451L900 451L900 377L886.3 374.8C872.7 372.7 845.3 368.3 818 372.8C790.7 377.3 763.3 390.7 736.2 392.2C709 393.7 682 383.3 654.8 378.8C627.7 374.3 600.3 375.7 573 374.2C545.7 372.7 518.3 368.3 491 370.7C463.7 373 436.3 382 409 384.2C381.7 386.3 354.3 381.7 327 383.2C299.7 384.7 272.3 392.3 245.2 394.7C218 397 191 394 163.8 394C136.7 394 109.3 397 82 399.2C54.7 401.3 27.3 402.7 13.7 403.3L0 404Z" fill="#2563eb"></path></svg>